# xmcd CD database file
#
# Track frame offsets:
#	150
#	10712
#	25774
#	42597
#	55163
#	67297
#	83127
#	92864
#	106491
#	125639
#	139485
#	155707
#	173541
#	185812
#	198817
#	212869
#	226789
#	244635
#	262330
#	275028
#	285868
#	300504
#	314032
#
# Disc length: 4358 seconds
#
# Revision: 0
# Processed by: cddbd v1.5.2PL0 Copyright (c) Steve Scherf et al.
# Submitted via: CDex 1.50
#
DISCID=58110417
DTITLE=Chet Baker - My Funny Valentine
DYEAR=2006
DGENRE=Jazz
TTITLE0=My Funny Valentine
TTITLE1=I Fall In Love Too Easily
TTITLE2=Let's Get Lost
TTITLE3=Time After Time
TTITLE4=Look For The Silver Lining
TTITLE5=Isn't It Romantic
TTITLE6=Embraceable You
TTITLE7=Someone To Watch Over Me
TTITLE8=My Heart Belongs To Daddy
TTITLE9=That Old Feeling
TTITLE10=It's Always You
TTITLE11=Sonny Boy
TTITLE12=Just Friends
TTITLE13=Bernie's Tune
TTITLE14=This Is Always
TTITLE15=But Not For Me
TTITLE16=Long Ago And Far Away
TTITLE17=Stella By Starlight
TTITLE18=How Long Has This Been Going On ?
TTITLE19=The Night We Called It A Day
TTITLE20=I'm Glad There Is You
TTITLE21=I Get Along Without You Very Well
TTITLE22=The Thrill Is Gone
EXTD=YEAR: 2006
EXTT0=
EXTT1=
EXTT2=
EXTT3=
EXTT4=
EXTT5=
EXTT6=
EXTT7=
EXTT8=
EXTT9=
EXTT10=
EXTT11=
EXTT12=
EXTT13=
EXTT14=
EXTT15=
EXTT16=
EXTT17=
EXTT18=
EXTT19=
EXTT20=
EXTT21=
EXTT22=
PLAYORDER=
